<svg width="31" height="31" viewBox="0 0 31 31" fill="none" xmlns="http://www.w3.org/2000/svg">
<g clip-path="url(#clip0_653_4481)">
<path fill-rule="evenodd" clip-rule="evenodd" d="M30.0275 11.75H0.972656C2.63782 5.2804 8.51069 0.5 15.5001 0.5C22.4895 0.5 28.3624 5.2804 30.0275 11.75Z" fill="#FF9933"/>
<path fill-rule="evenodd" clip-rule="evenodd" d="M30.0274 19.25C30.3359 18.0514 30.5 16.7949 30.5 15.5C30.5 14.2051 30.3359 12.9486 30.0274 11.75H0.972566C0.664074 12.9486 0.5 14.2051 0.5 15.5C0.5 16.7949 0.664074 18.0514 0.972566 19.25H30.0274Z" fill="white"/>
<path fill-rule="evenodd" clip-rule="evenodd" d="M30.0275 19.25C28.3624 25.7196 22.4895 30.5 15.5001 30.5C8.51069 30.5 2.63782 25.7196 0.972656 19.25H30.0275Z" fill="#128807"/>
<path d="M15.5 18.5C17.1569 18.5 18.5 17.1569 18.5 15.5C18.5 13.8431 17.1569 12.5 15.5 12.5C13.8431 12.5 12.5 13.8431 12.5 15.5C12.5 17.1569 13.8431 18.5 15.5 18.5Z" fill="#000088"/>
<path d="M15.5 18.125C16.9497 18.125 18.125 16.9497 18.125 15.5C18.125 14.0503 16.9497 12.875 15.5 12.875C14.0503 12.875 12.875 14.0503 12.875 15.5C12.875 16.9497 14.0503 18.125 15.5 18.125Z" fill="white"/>
<path d="M15.4996 16.0246C15.7896 16.0246 16.0246 15.7896 16.0246 15.4996C16.0246 15.2097 15.7896 14.9746 15.4996 14.9746C15.2097 14.9746 14.9746 15.2097 14.9746 15.4996C14.9746 15.7896 15.2097 16.0246 15.4996 16.0246Z" fill="#000088"/>
<path fill-rule="evenodd" clip-rule="evenodd" d="M15.2914 12.8791C15.2816 12.8052 15.2138 12.7532 15.1399 12.7629C15.066 12.7726 15.0139 12.8404 15.0237 12.9144C15.0334 12.9883 15.1012 13.0403 15.1751 13.0306C15.2491 13.0208 15.3011 12.953 15.2914 12.8791ZM15.4094 14.4495L15.4994 12.8745L15.5894 14.4495L15.4994 15.1995L15.4094 14.4495ZM15.1409 14.5086L14.8201 12.9639L15.3147 14.462L15.4219 15.2097L15.1409 14.5086ZM14.8965 14.6351L14.1869 13.2261L15.0524 14.5451L15.3494 15.2397L14.8965 14.6351ZM14.6934 14.8207L13.6434 13.6433L14.8207 14.6934L15.2874 15.2874L14.6934 14.8207ZM14.545 15.0524L13.226 14.187L14.635 14.8966L15.2395 15.3495L14.545 15.0524ZM14.4619 15.3146L12.9639 14.8201L14.5085 15.1408L15.2097 15.4218L14.4619 15.3146ZM14.4494 15.5895L12.8744 15.4995L14.4494 15.4095L15.1994 15.4995L14.4494 15.5895ZM14.5084 15.8582L12.9638 16.1789L14.4618 15.6843L15.2096 15.5772L14.5084 15.8582ZM14.635 16.1024L13.226 16.812L14.545 15.9465L15.2395 15.6495L14.635 16.1024ZM18.2357 15.8607C18.226 15.9346 18.1582 15.9867 18.0842 15.9769C18.0103 15.9672 17.9583 15.8994 17.968 15.8255C17.9777 15.7516 18.0456 15.6995 18.1195 15.7093C18.1934 15.719 18.2454 15.7868 18.2357 15.8607ZM15.5893 16.5495L15.4993 18.1245L15.4093 16.5495L15.4993 15.7995L15.5893 16.5495ZM17.9761 16.3803C17.9072 16.3517 17.8282 16.3845 17.7997 16.4533C17.7712 16.5222 17.8039 16.6012 17.8728 16.6297C17.9416 16.6583 18.0206 16.6255 18.0491 16.5567C18.0777 16.4878 18.045 16.4088 17.9761 16.3803ZM15.3146 16.537L14.8201 18.035L15.1408 16.4904L15.4218 15.7892L15.3146 16.537ZM17.4993 17.2054C17.5584 17.2508 17.6432 17.2397 17.6886 17.1805C17.734 17.1214 17.7228 17.0366 17.6637 16.9912C17.6045 16.9459 17.5198 16.957 17.4744 17.0162C17.429 17.0753 17.4401 17.1601 17.4993 17.2054ZM15.0523 16.4538L14.1868 17.7728L14.8964 16.3638L15.3493 15.7593L15.0523 16.4538ZM16.9897 17.6649C17.0351 17.7241 17.1198 17.7352 17.1789 17.6898C17.2381 17.6444 17.2493 17.5597 17.2039 17.5005C17.1585 17.4414 17.0737 17.4302 17.0146 17.4756C16.9554 17.521 16.9443 17.6058 16.9897 17.6649ZM14.8204 16.3056L13.6431 17.3557L14.6932 16.1783L15.2871 15.7116L14.8204 16.3056ZM16.3782 17.9768C16.4068 18.0457 16.4857 18.0784 16.5546 18.0499C16.6235 18.0213 16.6562 17.9424 16.6277 17.8735C16.5992 17.8046 16.5202 17.7719 16.4513 17.8004C16.3824 17.8289 16.3497 17.9079 16.3782 17.9768ZM15.7071 18.1199C15.7168 18.1938 15.7846 18.2458 15.8585 18.2361C15.9325 18.2264 15.9845 18.1585 15.9748 18.0846C15.965 18.0107 15.8972 17.9587 15.8233 17.9684C15.7494 17.9781 15.6973 18.0459 15.7071 18.1199ZM15.0218 18.0844C15.0121 18.1583 15.0641 18.2261 15.138 18.2359C15.2119 18.2456 15.2798 18.1936 15.2895 18.1196C15.2992 18.0457 15.2472 17.9779 15.1733 17.9682C15.0993 17.9584 15.0315 18.0105 15.0218 18.0844ZM14.3691 17.8727C14.3406 17.9416 14.3733 18.0205 14.4422 18.0491C14.511 18.0776 14.59 18.0449 14.6185 17.976C14.6471 17.9071 14.6144 17.8282 14.5455 17.7996C14.4766 17.7711 14.3976 17.8038 14.3691 17.8727ZM13.7934 17.4993C13.748 17.5585 13.7591 17.6432 13.8183 17.6886C13.8774 17.734 13.9622 17.7228 14.0076 17.6637C14.053 17.6045 14.0418 17.5198 13.9827 17.4744C13.9235 17.429 13.8388 17.4401 13.7934 17.4993ZM13.334 16.9897C13.2748 17.0351 13.2637 17.1198 13.3091 17.179C13.3545 17.2381 13.4392 17.2493 13.4983 17.2039C13.5575 17.1585 13.5687 17.0737 13.5233 17.0146C13.4779 16.9554 13.3931 16.9443 13.334 16.9897ZM13.0222 16.3785C12.9533 16.407 12.9206 16.486 12.9491 16.5549C12.9776 16.6237 13.0566 16.6565 13.1255 16.6279C13.1944 16.5994 13.2271 16.5204 13.1986 16.4515C13.17 16.3827 13.0911 16.3499 13.0222 16.3785ZM12.8791 15.7073C12.8052 15.717 12.7532 15.7848 12.7629 15.8588C12.7726 15.9327 12.8404 15.9847 12.9144 15.975C12.9883 15.9653 13.0403 15.8974 13.0306 15.8235C13.0208 15.7496 12.953 15.6976 12.8791 15.7073ZM12.9145 15.022C12.8406 15.0123 12.7728 15.0643 12.763 15.1383C12.7533 15.2122 12.8053 15.28 12.8793 15.2897C12.9532 15.2995 13.021 15.2474 13.0307 15.1735C13.0405 15.0996 12.9884 15.0318 12.9145 15.022ZM13.1263 14.3693C13.0574 14.3407 12.9784 14.3734 12.9499 14.4423C12.9214 14.5112 12.9541 14.5902 13.023 14.6187C13.0918 14.6472 13.1708 14.6145 13.1993 14.5456C13.2279 14.4768 13.1952 14.3978 13.1263 14.3693ZM15.6841 14.462L16.1787 12.964L15.858 14.5086L15.5769 15.2097L15.6841 14.462ZM13.4994 13.7935C13.4403 13.7481 13.3555 13.7593 13.3102 13.8184C13.2648 13.8776 13.2759 13.9623 13.3351 14.0077C13.3942 14.0531 13.479 14.042 13.5244 13.9828C13.5698 13.9237 13.5586 13.8389 13.4994 13.7935ZM15.9465 14.5452L16.8119 13.2262L16.1023 14.6352L15.6494 15.2397L15.9465 14.5452ZM14.0094 13.3341C13.964 13.275 13.8793 13.2638 13.8201 13.3092C13.7609 13.3546 13.7498 13.4394 13.7952 13.4985C13.8406 13.5577 13.9253 13.5688 13.9845 13.5234C14.0436 13.478 14.0548 13.3933 14.0094 13.3341ZM16.1783 14.6934L17.3556 13.6433L16.3056 14.8207L15.7116 15.2873L16.1783 14.6934ZM14.6205 13.0223C14.592 12.9534 14.513 12.9207 14.4441 12.9492C14.3752 12.9777 14.3425 13.0567 14.371 13.1256C14.3996 13.1945 14.4786 13.2272 14.5474 13.1986C14.6163 13.1701 14.649 13.0911 14.6205 13.0223ZM16.3638 14.8965L17.7727 14.187L16.4538 15.0524L15.7592 15.3495L16.3638 14.8965ZM16.4903 15.1409L18.035 14.8201L16.5369 15.3147L15.7892 15.4219L16.4903 15.1409ZM15.9766 12.9147C15.9864 12.8407 15.9343 12.7729 15.8604 12.7632C15.7865 12.7535 15.7187 12.8055 15.7089 12.8794C15.6992 12.9533 15.7513 13.0211 15.8252 13.0309C15.8991 13.0406 15.9669 12.9886 15.9766 12.9147ZM16.5494 15.4096L18.1244 15.4996L16.5494 15.5896L15.7994 15.4996L16.5494 15.4096ZM16.6296 13.1263C16.6582 13.0574 16.6255 12.9784 16.5566 12.9499C16.4877 12.9214 16.4087 12.9541 16.3802 13.023C16.3517 13.0918 16.3844 13.1708 16.4533 13.1993C16.5221 13.2279 16.6011 13.1952 16.6296 13.1263ZM16.5368 15.6843L18.0349 16.1789L16.4902 15.8582L15.7891 15.5772L16.5368 15.6843ZM17.2054 13.4997C17.2508 13.4405 17.2396 13.3558 17.1804 13.3104C17.1213 13.265 17.0365 13.2762 16.9912 13.3353C16.9458 13.3945 16.9569 13.4792 17.0161 13.5246C17.0752 13.57 17.16 13.5588 17.2054 13.4997ZM16.4537 15.9466L17.7727 16.812L16.3637 16.1025L15.7592 15.6495L16.4537 15.9466ZM17.6648 14.0094C17.7239 13.964 17.7351 13.8793 17.6897 13.8201C17.6443 13.7609 17.5595 13.7498 17.5004 13.7952C17.4412 13.8406 17.4301 13.9253 17.4755 13.9845C17.5209 14.0436 17.6056 14.0548 17.6648 14.0094ZM16.3053 16.1784L17.3553 17.3557L16.178 16.3057L15.7113 15.7117L16.3053 16.1784ZM17.9766 14.6206C18.0454 14.592 18.0782 14.5131 18.0496 14.4442C18.0211 14.3753 17.9421 14.3426 17.8732 14.3711C17.8044 14.3997 17.7716 14.4786 17.8002 14.5475C17.8287 14.6164 17.9077 14.6491 17.9766 14.6206ZM16.1023 16.3638L16.8118 17.7728L15.9464 16.4538L15.6493 15.7593L16.1023 16.3638ZM18.1196 15.2917C18.1936 15.2819 18.2456 15.2141 18.2359 15.1402C18.2261 15.0663 18.1583 15.0143 18.0844 15.024C18.0105 15.0337 17.9584 15.1015 17.9682 15.1755C17.9779 15.2494 18.0457 15.3014 18.1196 15.2917ZM15.8579 16.4904L16.1786 18.035L15.684 16.537L15.5768 15.7893L15.8579 16.4904Z" fill="#000088"/>
<path fill-rule="evenodd" clip-rule="evenodd" d="M15.5 29.625C23.301 29.625 29.625 23.301 29.625 15.5C29.625 7.69898 23.301 1.375 15.5 1.375C7.69898 1.375 1.375 7.69898 1.375 15.5C1.375 23.301 7.69898 29.625 15.5 29.625ZM15.5 30.5C23.7843 30.5 30.5 23.7843 30.5 15.5C30.5 7.21573 23.7843 0.5 15.5 0.5C7.21573 0.5 0.5 7.21573 0.5 15.5C0.5 23.7843 7.21573 30.5 15.5 30.5Z" fill="#D9D9D9"/>
</g>
<defs>
<clipPath id="clip0_653_4481">
<rect x="0.5" y="0.5" width="30" height="30" fill="white"/>
</clipPath>
</defs>
</svg>
